<svg version="1.1" id="Layer_1" xmlns="http://www.w3.org/2000/svg" xmlns:xlink="http://www.w3.org/1999/xlink" x="0px" y="0px"
	 width="100%" viewBox="0 0 128 128" enable-background="new 0 0 128 128" xml:space="preserve">
<path fill="#5B83FD" opacity="1.000000" stroke="none" 
	d="
M103.106506,114.058975 
	C103.106506,116.861076 103.106506,119.663170 103.106506,122.978577 
	C76.437469,122.978577 50.181461,122.978577 23.454277,122.563248 
	C22.929148,121.461281 22.875196,120.774635 22.862938,119.615479 
	C22.940323,88.483887 22.976019,57.824821 23.011713,27.165752 
	C24.384405,27.105007 25.757097,27.044264 27.926012,26.962040 
	C29.499056,26.921619 30.275875,26.902678 31.513657,26.933853 
	C36.297974,26.957533 40.621330,26.931093 44.964005,27.355850 
	C44.776527,31.827047 44.569733,35.847046 44.362942,39.867043 
	C44.773762,39.879299 45.184582,39.891556 45.595406,39.903812 
	C46.431602,35.583900 47.267803,31.263994 48.563160,26.968128 
	C53.664879,26.954960 58.307434,26.917749 63.336983,26.910667 
	C64.499344,26.920721 65.274712,26.900646 66.503357,26.931976 
	C70.603012,26.970341 74.249382,26.957300 78.124489,27.268950 
	C78.554779,29.753395 78.756332,31.913151 78.614090,34.129436 
	C74.316399,36.310928 73.279449,39.785145 74.590569,43.720268 
	C75.652527,46.907578 77.481888,49.839203 78.618042,52.970421 
	C76.203941,54.537178 72.804680,55.655380 72.290215,57.554893 
	C67.615295,74.815819 63.443707,92.213066 58.988541,110.118408 
	C69.068604,112.475449 78.733376,114.735374 88.420807,117.037231 
	C88.443466,117.079163 88.528709,117.036507 88.850456,117.266373 
	C92.004547,118.173836 94.836884,118.851433 97.850266,119.572350 
	C98.332397,117.445602 98.695717,115.842941 99.475449,114.124893 
	C100.963402,114.025993 102.034958,114.042488 103.106506,114.058975 
z"/>
<path fill="#F24851" opacity="1.000000" stroke="none" 
	d="
M103.455307,113.893707 
	C102.034958,114.042488 100.963402,114.025993 99.094742,114.139809 
	C95.041313,115.192245 91.785011,116.114372 88.528709,117.036499 
	C88.528709,117.036507 88.443466,117.079163 88.295097,116.653275 
	C87.078583,112.497910 86.010429,108.768440 84.936569,104.730164 
	C84.696342,103.648064 84.461830,102.874779 84.184128,101.768143 
	C84.019501,101.003647 83.898071,100.572495 83.786613,99.852417 
	C83.585846,99.042274 83.375099,98.521065 83.139709,97.591507 
	C81.636871,91.177872 80.158661,85.172585 78.628815,78.821930 
	C78.079124,76.948784 77.581062,75.420990 77.068741,73.546249 
	C76.923210,72.518990 76.791939,71.838676 76.624077,70.864540 
	C76.350151,70.026581 76.112808,69.482452 75.875221,68.547501 
	C74.330750,64.181717 75.164520,60.824631 78.106911,57.700905 
	C79.660591,56.051476 80.659683,53.879650 82.065865,51.643330 
	C85.062332,48.328068 87.902092,45.313156 91.017685,42.595745 
	C95.293449,48.173401 95.162773,49.625015 90.795074,54.179474 
	C90.103500,54.900612 90.178551,56.356941 89.899162,57.473358 
	C90.876129,57.716839 91.850250,58.153992 92.830574,58.168346 
	C96.078445,58.215908 97.777985,56.913082 97.019806,53.305798 
	C96.444229,50.567276 96.200699,47.758965 96.162712,45.033607 
	C98.656128,45.972549 100.796234,46.859592 102.936348,47.746639 
	C111.068108,49.453461 115.000214,54.115868 116.580864,62.665871 
	C119.137367,76.494377 123.370117,90.011398 126.817085,103.679604 
	C127.123428,104.894333 126.857773,106.253304 126.857773,107.663933 
	C119.041740,109.720016 111.422920,111.724228 103.455307,113.893707 
M97.438805,68.024651 
	C91.850990,69.488167 86.263176,70.951691 80.675362,72.415207 
	C80.858833,73.049286 81.042313,73.683357 81.225784,74.317436 
	C91.831238,71.624146 102.436691,68.930862 113.042145,66.237579 
	C112.878716,65.595306 112.715286,64.953026 112.551857,64.310753 
	C107.784721,65.500931 103.017586,66.691101 97.438805,68.024651 
M99.938950,94.345657 
	C106.309410,92.696152 112.679871,91.046646 119.050323,89.397141 
	C118.868347,88.774132 118.686363,88.151131 118.504379,87.528122 
	C107.823463,90.233757 97.142548,92.939384 86.461632,95.645012 
	C86.599144,96.231163 86.736664,96.817307 86.874176,97.403458 
	C90.966820,96.470490 95.059471,95.537521 99.938950,94.345657 
M119.050728,101.994171 
	C119.843796,101.458664 120.636864,100.923149 121.429932,100.387642 
	C121.257805,100.012077 121.085678,99.636513 120.913544,99.260956 
	C110.519905,101.872696 100.126266,104.484436 89.732620,107.096176 
	C89.901161,107.797447 90.069702,108.498718 90.238243,109.199982 
	C99.602791,106.851143 108.967339,104.502312 119.050728,101.994171 
M109.073036,71.380539 
	C109.590530,75.955261 110.108032,80.529991 110.623535,85.087059 
	C115.449646,84.620605 117.594170,83.321693 117.004829,79.305435 
	C115.996170,72.431587 114.798347,70.963791 109.073036,71.380539 
M91.263191,80.335625 
	C91.786140,82.238281 91.952354,84.360519 92.945358,85.973854 
	C93.734093,87.255302 95.534401,87.914139 96.885590,88.849411 
	C97.826668,87.342392 99.322868,85.915321 99.554619,84.306137 
	C99.792236,82.656281 99.098610,80.658752 98.248985,79.125755 
	C97.395134,77.585144 95.846863,76.429398 94.602905,75.104996 
	C93.435455,76.587761 92.268005,78.070526 91.263191,80.335625 
M116.891304,106.568016 
	C118.700035,105.909172 120.508766,105.250320 122.317497,104.591476 
	C122.148308,104.139748 121.979126,103.688026 121.809937,103.236298 
	C111.449142,105.876549 101.088348,108.516808 90.727562,111.157059 
	C90.881149,111.758339 91.034737,112.359612 91.188324,112.960892 
	C99.502174,110.901299 107.816025,108.841705 116.891304,106.568016 
M90.844925,85.930519 
	C88.729034,84.205406 86.613144,82.480293 84.497261,80.755188 
	C84.665344,80.466316 84.833435,80.177452 85.001518,79.888580 
	C86.266060,79.971931 87.530602,80.055275 88.795143,80.138626 
	C88.930443,79.685127 89.065750,79.231636 89.201050,78.778145 
	C87.771011,78.317467 86.223778,77.299339 84.947006,77.567741 
	C83.873375,77.793449 82.256813,79.662308 82.406662,80.544571 
	C82.666130,82.072372 83.956680,83.538063 85.095398,84.770500 
	C86.152451,85.914551 87.588295,86.705299 88.801697,87.718277 
	C88.860764,87.767593 88.384834,88.457764 88.033020,89.065437 
	C86.806122,88.474754 85.696083,87.940338 84.586052,87.405922 
	C84.316246,87.836258 84.046440,88.266602 83.776634,88.696938 
	C85.051231,89.504616 86.916908,91.279167 87.485313,90.931686 
	C88.962204,90.028801 89.869011,88.193405 90.844925,85.930519 
M103.055298,81.183594 
	C102.328911,78.733612 101.602531,76.283630 100.876144,73.833641 
	C100.322456,74.004097 99.768776,74.174553 99.215088,74.345009 
	C100.220108,78.504265 101.225128,82.663521 102.400528,87.527878 
	C104.882881,86.741585 106.899063,86.102959 108.411537,85.623878 
	C106.438736,84.228020 104.814964,83.079124 103.055298,81.183594 
z"/>
<path fill="#3A69FF" opacity="1.000000" stroke="none" 
	d="
M7.165870,120.970596 
	C7.165870,89.840958 7.165870,58.711315 7.165870,27.024046 
	C9.246996,27.024046 11.175731,27.024046 13.550713,27.552017 
	C13.997489,53.330563 13.745483,78.585289 14.160203,103.829063 
	C14.276959,110.935997 12.288114,116.391716 7.165870,120.970596 
z"/>
<path fill="#3A69FF" opacity="1.000000" stroke="none" 
	d="
M22.577942,27.095192 
	C22.976019,57.824821 22.940323,88.483887 22.568010,119.481018 
	C17.568661,116.185318 15.814768,111.594780 15.880603,105.532936 
	C16.164280,79.412460 16.003284,53.287163 16.004190,27.163618 
	C18.050850,27.117289 20.097511,27.070959 22.577942,27.095192 
z"/>
<path fill="#5C83FC" opacity="1.000000" stroke="none" 
	d="
M102.958725,47.295097 
	C100.796234,46.859592 98.656128,45.972549 95.969589,44.778240 
	C92.080200,39.327663 88.555984,34.421951 81.484634,33.607166 
	C81.237122,31.138971 81.147888,29.022146 81.058662,26.905323 
	C88.150925,26.905323 95.243195,26.905323 102.981094,26.905323 
	C102.981094,33.757652 102.981094,40.300602 102.958725,47.295097 
z"/>
<path fill="#3B6AFF" opacity="1.000000" stroke="none" 
	d="
M81.033157,26.487408 
	C81.147888,29.022146 81.237122,31.138971 81.485092,33.950142 
	C81.764992,35.085003 81.886154,35.525517 82.001915,36.332474 
	C81.786476,37.836124 81.576431,38.973339 81.244392,40.771076 
	C80.023933,38.914242 79.310532,37.828854 78.752213,36.428993 
	C78.924164,35.433983 78.941032,34.753445 78.957886,34.072906 
	C78.756332,31.913151 78.554779,29.753395 78.168961,26.856220 
	C77.327164,22.992619 76.917168,19.788424 75.961578,16.756168 
	C73.843895,10.036407 66.097290,5.780241 58.811790,8.862991 
	C57.387901,9.218276 56.239216,9.646152 54.921165,10.385929 
	C48.410160,14.425054 48.780098,20.898582 48.104004,26.944086 
	C47.267803,31.263994 46.431602,35.583900 45.595406,39.903812 
	C45.184582,39.891556 44.773762,39.879299 44.362942,39.867043 
	C44.569733,35.847046 44.776527,31.827047 44.988052,26.935661 
	C45.638359,19.421753 46.490780,12.858664 52.217979,7.989755 
	C53.350143,7.342443 54.175148,6.755025 55.000153,6.167606 
	C67.616158,1.880775 79.727478,7.846179 80.051628,21.339357 
	C80.089668,22.922812 80.675682,24.493099 81.033157,26.487408 
z"/>
<path fill="#2356F5" opacity="1.000000" stroke="none" 
	d="
M15.671717,27.095753 
	C16.003284,53.287163 16.164280,79.412460 15.880603,105.532936 
	C15.814768,111.594780 17.568661,116.185318 22.526318,119.953537 
	C22.875196,120.774635 22.929148,121.461281 22.990124,122.492844 
	C22.546886,122.883240 22.096626,122.928726 21.157726,122.615021 
	C18.909142,119.983719 17.149197,117.711601 14.921911,114.836143 
	C12.639011,117.928749 10.826803,120.383720 9.014597,122.838692 
	C8.356452,122.449707 7.698307,122.060722 7.103015,121.321167 
	C12.288114,116.391716 14.276959,110.935997 14.160203,103.829063 
	C13.745483,78.585289 13.997489,53.330563 13.996336,27.621801 
	C14.443556,27.118372 14.891399,27.073130 15.671717,27.095753 
z"/>
<path fill="#2255F6" opacity="1.000000" stroke="none" 
	d="
M54.583450,6.081101 
	C54.175148,6.755025 53.350143,7.342443 51.771164,7.968489 
	C35.631973,6.504393 31.673374,16.122242 31.052696,26.883736 
	C30.275875,26.902678 29.499056,26.921619 28.335915,26.910965 
	C28.653955,18.137495 29.994328,9.344933 39.776150,6.332562 
	C44.189190,4.973541 49.346897,6.032623 54.583450,6.081101 
z"/>
<path fill="#3968FF" opacity="1.000000" stroke="none" 
	d="
M9.469958,122.907761 
	C10.826803,120.383720 12.639011,117.928749 14.921911,114.836143 
	C17.149197,117.711601 18.909142,119.983719 20.823116,122.547531 
	C17.293205,122.885101 13.609263,122.930969 9.469958,122.907761 
z"/>
<path fill="#F9C93E" opacity="1.000000" stroke="none" 
	d="
M78.680450,79.167297 
	C80.158661,85.172585 81.636871,91.177872 82.717880,97.584839 
	C77.365860,96.988251 72.411026,95.989983 67.456192,94.991714 
	C67.341515,95.557518 67.226845,96.123322 67.112167,96.689133 
	C72.666992,97.839867 78.221809,98.990608 83.776634,100.141342 
	C83.898071,100.572495 84.019501,101.003647 83.744293,101.748459 
	C77.539459,100.918343 71.731255,99.774559 65.923058,98.630775 
	C65.786209,99.215034 65.649361,99.799301 65.512512,100.383560 
	C71.989098,101.935364 78.465691,103.487167 84.942276,105.038971 
	C86.010429,108.768440 87.078583,112.497910 88.272438,116.611343 
	C78.733376,114.735374 69.068604,112.475449 58.988541,110.118408 
	C63.443707,92.213066 67.615295,74.815819 72.290215,57.554893 
	C72.804680,55.655380 76.203941,54.537178 78.894760,52.886326 
	C80.044739,52.448101 80.565193,52.180149 81.290512,51.946503 
	C81.495384,51.980804 81.909164,51.943684 81.909164,51.943684 
	C80.659683,53.879650 79.660591,56.051476 78.106911,57.700905 
	C75.164520,60.824631 74.330750,64.181717 75.516754,68.598869 
	C69.501541,74.772461 70.920959,82.567535 69.117752,89.539642 
	C70.767975,88.560661 71.743538,87.275223 72.214699,85.825821 
	C73.793777,80.968231 75.192734,76.052094 76.660660,71.158371 
	C76.791939,71.838676 76.923210,72.518990 77.012688,73.949127 
	C75.785217,79.786659 74.599541,84.874374 73.413864,89.962082 
	C73.801392,90.083702 74.188919,90.205315 74.576447,90.326935 
	C75.944443,86.607056 77.312447,82.887177 78.680450,79.167297 
z"/>
<path fill="#2255F5" opacity="1.000000" stroke="none" 
	d="
M63.336983,26.910667 
	C62.669907,20.416243 61.209713,14.464479 55.410614,10.166080 
	C56.239216,9.646152 57.387901,9.218276 58.811790,8.862991 
	C64.010071,13.584868 65.441254,19.645763 66.029068,26.468334 
	C65.274712,26.900646 64.499344,26.920721 63.336983,26.910667 
z"/>
<path fill="#DBA444" opacity="1.000000" stroke="none" 
	d="
M81.085648,51.912197 
	C80.565193,52.180149 80.044739,52.448101 79.247574,52.800148 
	C77.481888,49.839203 75.652527,46.907578 74.590569,43.720268 
	C73.279449,39.785145 74.316399,36.310928 78.614098,34.129436 
	C78.941032,34.753445 78.924164,35.433983 78.403625,36.627213 
	C73.977539,43.138885 78.626877,47.289337 81.085648,51.912197 
z"/>
<path fill="#F1C04A" opacity="1.000000" stroke="none" 
	d="
M88.850456,117.266365 
	C91.785011,116.114372 95.041313,115.192245 98.678329,114.255203 
	C98.695717,115.842941 98.332397,117.445602 97.850266,119.572350 
	C94.836884,118.851433 92.004547,118.173836 88.850456,117.266365 
z"/>
<path fill="#6083F7" opacity="1.000000" stroke="none" 
	d="
M81.290512,51.946503 
	C78.626877,47.289337 73.977539,43.138885 78.248535,36.941681 
	C79.310532,37.828854 80.023933,38.914242 81.244392,40.771076 
	C81.576431,38.973339 81.786476,37.836124 82.360382,36.367512 
	C85.396790,38.123489 88.069321,40.210869 90.741859,42.298248 
	C87.902092,45.313156 85.062332,48.328068 82.065865,51.643330 
	C81.909164,51.943684 81.495384,51.980804 81.290512,51.946503 
z"/>
<path fill="#E9A436" opacity="1.000000" stroke="none" 
	d="
M91.017685,42.595745 
	C88.069321,40.210869 85.396790,38.123489 82.365784,36.001068 
	C81.886154,35.525517 81.764992,35.085003 81.643372,34.301514 
	C88.555984,34.421951 92.080200,39.327663 95.616287,44.726341 
	C96.200699,47.758965 96.444229,50.567276 97.019806,53.305798 
	C97.777985,56.913082 96.078445,58.215908 92.830574,58.168346 
	C91.850250,58.153992 90.876129,57.716839 89.899162,57.473358 
	C90.178551,56.356941 90.103500,54.900612 90.795074,54.179474 
	C95.162773,49.625015 95.293449,48.173401 91.017685,42.595745 
z"/>
<path fill="#FDE8E9" opacity="1.000000" stroke="none" 
	d="
M97.844627,67.952957 
	C103.017586,66.691101 107.784721,65.500931 112.551857,64.310753 
	C112.715286,64.953026 112.878716,65.595306 113.042145,66.237579 
	C102.436691,68.930862 91.831238,71.624146 81.225784,74.317436 
	C81.042313,73.683357 80.858833,73.049286 80.675362,72.415207 
	C86.263176,70.951691 91.850990,69.488167 97.844627,67.952957 
z"/>
<path fill="#FEEAEB" opacity="1.000000" stroke="none" 
	d="
M99.545532,94.475098 
	C95.059471,95.537521 90.966820,96.470490 86.874176,97.403458 
	C86.736664,96.817307 86.599144,96.231163 86.461632,95.645012 
	C97.142548,92.939384 107.823463,90.233757 118.504379,87.528122 
	C118.686363,88.151131 118.868347,88.774132 119.050323,89.397141 
	C112.679871,91.046646 106.309410,92.696152 99.545532,94.475098 
z"/>
<path fill="#E52530" opacity="1.000000" stroke="none" 
	d="
M118.691307,102.073822 
	C108.967339,104.502312 99.602791,106.851143 90.238243,109.199982 
	C90.069702,108.498718 89.901161,107.797447 89.732620,107.096176 
	C100.126266,104.484436 110.519905,101.872696 120.913544,99.260956 
	C121.085678,99.636513 121.257805,100.012077 121.429932,100.387642 
	C120.636864,100.923149 119.843796,101.458664 118.691307,102.073822 
z"/>
<path fill="#FDE9EA" opacity="1.000000" stroke="none" 
	d="
M109.456169,71.237457 
	C114.798347,70.963791 115.996170,72.431587 117.004829,79.305435 
	C117.594170,83.321693 115.449646,84.620605 110.623535,85.087059 
	C110.108032,80.529991 109.590530,75.955261 109.456169,71.237457 
M110.894859,75.490593 
	C111.571915,77.819633 112.248970,80.148674 112.926025,82.477707 
	C113.652184,82.280914 114.378342,82.084122 115.104500,81.887321 
	C114.398590,79.102219 113.692680,76.317108 112.986771,73.532005 
	C112.242516,73.909576 111.498253,74.287148 110.894859,75.490593 
z"/>
<path fill="#F4AD23" opacity="1.000000" stroke="none" 
	d="
M76.624069,70.864540 
	C75.192734,76.052094 73.793777,80.968231 72.214699,85.825821 
	C71.743538,87.275223 70.767975,88.560661 69.117752,89.539642 
	C70.920959,82.567535 69.501541,74.772461 75.516998,68.989685 
	C76.112808,69.482452 76.350151,70.026581 76.624069,70.864540 
z"/>
<path fill="#FDE3E5" opacity="1.000000" stroke="none" 
	d="
M91.181870,79.944458 
	C92.268005,78.070526 93.435455,76.587761 94.602905,75.104996 
	C95.846863,76.429398 97.395134,77.585144 98.248985,79.125755 
	C99.098610,80.658752 99.792236,82.656281 99.554619,84.306137 
	C99.322868,85.915321 97.826668,87.342392 96.885590,88.849411 
	C95.534401,87.914139 93.734093,87.255302 92.945358,85.973854 
	C91.952354,84.360519 91.786140,82.238281 91.181870,79.944458 
M94.136742,83.072739 
	C94.759148,84.350815 95.381546,85.628883 96.003944,86.906960 
	C96.615501,86.659081 97.227051,86.411209 97.838608,86.163330 
	C97.034775,83.190514 96.230942,80.217697 95.427109,77.244888 
	C94.814331,77.352921 94.201561,77.460960 93.588791,77.569000 
	C93.725449,79.148209 93.862114,80.727409 94.136742,83.072739 
z"/>
<path fill="#E4242F" opacity="1.000000" stroke="none" 
	d="
M116.510590,106.675064 
	C107.816025,108.841705 99.502174,110.901299 91.188324,112.960892 
	C91.034737,112.359612 90.881149,111.758339 90.727562,111.157059 
	C101.088348,108.516808 111.449142,105.876549 121.809937,103.236298 
	C121.979126,103.688026 122.148308,104.139748 122.317497,104.591476 
	C120.508766,105.250320 118.700035,105.909172 116.510590,106.675064 
z"/>
<path fill="#FDE3E5" opacity="1.000000" stroke="none" 
	d="
M90.924118,86.330322 
	C89.869011,88.193405 88.962204,90.028801 87.485313,90.931686 
	C86.916908,91.279167 85.051231,89.504616 83.776634,88.696938 
	C84.046440,88.266602 84.316246,87.836258 84.586052,87.405922 
	C85.696083,87.940338 86.806122,88.474754 88.033020,89.065437 
	C88.384834,88.457764 88.860764,87.767593 88.801697,87.718277 
	C87.588295,86.705299 86.152451,85.914551 85.095398,84.770500 
	C83.956680,83.538063 82.666130,82.072372 82.406662,80.544571 
	C82.256813,79.662308 83.873375,77.793449 84.947006,77.567741 
	C86.223778,77.299339 87.771011,78.317467 89.201050,78.778145 
	C89.065750,79.231636 88.930443,79.685127 88.795143,80.138626 
	C87.530602,80.055275 86.266060,79.971931 85.001518,79.888580 
	C84.833435,80.177452 84.665344,80.466316 84.497261,80.755188 
	C86.613144,82.480293 88.729034,84.205406 90.924118,86.330322 
z"/>
<path fill="#F5AE25" opacity="1.000000" stroke="none" 
	d="
M84.936569,104.730164 
	C78.465691,103.487167 71.989098,101.935364 65.512512,100.383560 
	C65.649361,99.799301 65.786209,99.215034 65.923058,98.630775 
	C71.731255,99.774559 77.539459,100.918343 83.787491,102.081802 
	C84.461830,102.874779 84.696342,103.648064 84.936569,104.730164 
z"/>
<path fill="#FDE1E3" opacity="1.000000" stroke="none" 
	d="
M103.123245,81.556908 
	C104.814964,83.079124 106.438736,84.228020 108.411537,85.623878 
	C106.899063,86.102959 104.882881,86.741585 102.400528,87.527878 
	C101.225128,82.663521 100.220108,78.504265 99.215088,74.345009 
	C99.768776,74.174553 100.322456,74.004097 100.876144,73.833641 
	C101.602531,76.283630 102.328911,78.733612 103.123245,81.556908 
z"/>
<path fill="#F4AD24" opacity="1.000000" stroke="none" 
	d="
M83.786613,99.852417 
	C78.221809,98.990608 72.666992,97.839867 67.112167,96.689133 
	C67.226845,96.123322 67.341515,95.557518 67.456192,94.991714 
	C72.411026,95.989983 77.365860,96.988251 82.742523,97.993195 
	C83.375099,98.521065 83.585846,99.042274 83.786613,99.852417 
z"/>
<path fill="#F4AB25" opacity="1.000000" stroke="none" 
	d="
M78.628815,78.821930 
	C77.312447,82.887177 75.944443,86.607056 74.576447,90.326935 
	C74.188919,90.205315 73.801392,90.083702 73.413864,89.962082 
	C74.599541,84.874374 75.785217,79.786659 77.026947,74.296082 
	C77.581062,75.420990 78.079124,76.948784 78.628815,78.821930 
z"/>
<path fill="#F3545D" opacity="1.000000" stroke="none" 
	d="
M110.824425,75.077652 
	C111.498253,74.287148 112.242516,73.909576 112.986771,73.532005 
	C113.692680,76.317108 114.398590,79.102219 115.104500,81.887321 
	C114.378342,82.084122 113.652184,82.280914 112.926025,82.477707 
	C112.248970,80.148674 111.571915,77.819633 110.824425,75.077652 
z"/>
<path fill="#F3565F" opacity="1.000000" stroke="none" 
	d="
M94.067764,82.689682 
	C93.862114,80.727409 93.725449,79.148209 93.588791,77.569000 
	C94.201561,77.460960 94.814331,77.352921 95.427109,77.244888 
	C96.230942,80.217697 97.034775,83.190514 97.838608,86.163330 
	C97.227051,86.411209 96.615501,86.659081 96.003944,86.906960 
	C95.381546,85.628883 94.759148,84.350815 94.067764,82.689682 
z"/>
</svg>