<svg version="1.1" id="Layer_1" xmlns="http://www.w3.org/2000/svg" xmlns:xlink="http://www.w3.org/1999/xlink" x="0px" y="0px"
	 width="100%" viewBox="0 0 128 128" enable-background="new 0 0 128 128" xml:space="preserve">
<path fill="#FF4A4A" opacity="1.000000" stroke="none" 
	d="
M76.000000,1.000000 
	C91.354225,1.000000 106.708458,1.000000 122.189133,1.192695 
	C123.251846,2.576022 124.188118,3.766654 124.928177,5.233791 
	C119.132294,11.367920 113.532623,17.225542 107.597305,22.927307 
	C105.868042,22.769447 104.474426,22.767445 103.080811,22.765440 
	C103.092133,24.160244 103.103455,25.555048 102.919647,27.227070 
	C99.453415,31.387386 96.182297,35.270489 92.711929,39.084511 
	C92.512672,39.015434 92.107597,38.897896 91.932175,38.572952 
	C89.390823,39.219532 87.024895,40.191059 84.687172,41.151001 
	C83.112839,39.888798 81.232407,38.381187 78.397667,36.108467 
	C81.665627,33.323559 84.312096,31.294765 86.622116,28.936422 
	C87.181816,28.365007 86.631737,26.706549 86.591972,25.547953 
	C85.557755,25.651432 84.147888,25.358015 83.550697,25.923241 
	C79.862793,29.413752 76.357925,33.097652 72.535263,36.978134 
	C76.274857,40.654907 79.557594,43.882507 82.875740,47.335258 
	C82.911148,47.560413 82.969337,48.012531 82.682777,48.178055 
	C79.221771,51.236141 76.047333,54.128708 72.567139,56.897415 
	C69.898354,54.446045 67.686790,51.927052 65.100868,49.881256 
	C64.001297,49.011353 62.117828,49.132309 60.590607,48.802956 
	C60.797924,50.333862 60.475182,52.308243 61.313988,53.310822 
	C63.639828,56.090797 66.449417,58.466049 69.093979,61.224525 
	C69.120110,61.447819 69.207932,61.888794 68.922379,62.041077 
	C67.442673,63.389198 66.248528,64.585045 64.812881,65.808548 
	C64.571388,65.836197 64.085358,65.846863 63.864437,65.590515 
	C60.450981,63.624973 57.358864,61.667286 54.020767,60.318264 
	C52.500965,59.704067 49.873623,59.618607 48.886066,60.528214 
	C47.920044,61.417988 47.758682,64.152008 48.373196,65.596008 
	C49.908836,69.204521 52.084965,72.540459 53.983402,76.247574 
	C53.941170,76.683098 53.919617,76.856834 53.625786,77.187309 
	C52.253983,78.800583 51.154461,80.257118 49.705658,81.749268 
	C48.896900,81.855194 48.437424,81.925514 47.574898,81.955811 
	C45.579834,82.335266 43.981979,82.733940 42.397163,83.179031 
	C39.981773,83.857391 36.909222,86.121140 35.610683,82.660805 
	C35.125004,81.366577 38.094055,78.761971 39.524166,76.780998 
	C39.696751,76.541939 40.235317,76.543121 40.367218,76.302834 
	C40.918633,75.298317 41.379612,74.244164 41.873737,73.208199 
	C40.744949,72.811508 39.526405,71.920357 38.503334,72.106071 
	C34.640156,72.807304 29.961243,79.019547 30.123116,82.834396 
	C30.298229,86.961205 33.451683,89.603966 38.968010,90.633453 
	C33.572048,96.667992 28.263319,102.389038 22.647488,107.971817 
	C16.688452,102.189644 11.051654,96.530441 5.373755,90.912781 
	C3.984924,89.538689 2.461526,88.300613 1.000000,87.000000 
	C1.000000,82.310745 1.000000,77.621490 1.220485,72.805023 
	C2.785361,71.455376 4.181930,70.285202 5.466314,69.002686 
	C24.630297,49.866512 43.775345,30.711378 62.935680,11.571556 
	C66.633217,7.877976 69.959709,3.641636 75.622124,2.708729 
	C75.836113,2.673473 75.877945,1.593264 76.000000,1.000000 
z"/>
<path fill="#FF2424" opacity="1.000000" stroke="none" 
	d="
M72.872887,57.021275 
	C76.047333,54.128708 79.221771,51.236141 82.972321,48.344734 
	C85.886909,50.685200 88.032845,53.282291 90.655426,55.241276 
	C91.757187,56.064251 94.438614,56.260620 95.413170,55.490547 
	C98.507637,53.045399 101.295593,50.145184 103.846031,47.120663 
	C104.587616,46.241241 104.135597,44.355309 104.230728,42.930756 
	C102.972267,43.172550 101.288811,42.987186 100.535522,43.736691 
	C98.326042,45.935066 96.486504,48.505253 94.733894,50.646572 
	C91.945549,48.388683 90.188393,46.965809 88.515289,45.611004 
	C90.195358,43.143040 91.553268,41.148312 92.911186,39.153587 
	C96.182297,35.270489 99.453415,31.387386 103.248611,27.378895 
	C108.673378,29.368828 107.908615,25.832401 107.932953,23.083164 
	C113.532623,17.225542 119.132294,11.367920 125.254227,5.389220 
	C126.850990,5.845428 127.925499,6.422714 129.000000,7.000000 
	C129.000000,22.354227 129.000000,37.708454 128.726730,53.198387 
	C125.058586,61.216183 118.779999,66.762062 112.886642,72.637505 
	C95.374008,90.096878 77.885612,107.580666 60.441463,125.108376 
	C59.387894,126.166977 58.802982,127.692001 58.000000,129.000000 
	C53.310745,129.000000 48.621487,129.000000 43.798965,128.762543 
	C36.761997,121.720078 29.858290,114.915085 22.954586,108.110092 
	C28.263319,102.389038 33.572048,96.667992 39.277405,90.530273 
	C40.465351,89.828522 41.256676,89.543427 42.454113,89.201851 
	C44.116219,88.764839 45.415405,87.973999 46.618004,88.100616 
	C48.391865,88.287376 50.096966,89.127289 51.831345,89.689041 
	C50.904953,91.452034 50.132286,93.326042 48.977974,94.924431 
	C48.503521,95.581398 47.109585,95.494278 46.307281,96.013527 
	C45.138332,96.770058 44.125984,97.768562 43.046867,98.663910 
	C44.426624,99.464371 45.796852,100.922539 47.187916,100.942696 
	C51.458275,101.004555 56.331875,96.351662 57.142994,91.991272 
	C58.020016,87.276619 55.764648,84.006355 50.054939,81.713654 
	C51.154461,80.257118 52.253983,78.800583 53.830818,77.473259 
	C55.729362,80.204964 56.896870,83.001366 58.676502,85.329948 
	C59.597034,86.534439 61.603287,86.909164 63.119019,87.658775 
	C63.296566,86.130951 64.124611,84.240028 63.516563,83.150719 
	C62.241482,80.866455 62.348881,79.429581 64.311104,77.693558 
	C65.646690,76.511917 66.516983,74.804359 67.437027,73.548126 
	C69.182907,74.401909 69.891838,75.000465 70.647484,75.066826 
	C72.331116,75.214653 74.893753,75.790894 75.572586,74.954445 
	C77.486687,72.595894 75.384644,71.229797 73.336258,70.173256 
	C70.559258,68.740883 67.813530,67.247879 65.054382,65.780891 
	C66.248528,64.585045 67.442673,63.389198 69.212883,62.195000 
	C72.602554,65.401566 75.416161,68.606483 78.658569,72.299843 
	C82.916664,68.111816 86.291649,65.013680 89.333046,61.616879 
	C89.951576,60.926067 89.313828,59.110413 89.255219,57.813309 
	C88.126480,57.959965 86.565659,57.690472 85.949196,58.330528 
	C84.021950,60.331524 82.451332,62.675995 80.742493,64.887344 
	C80.369423,64.536346 79.996346,64.185356 79.623268,63.834362 
	C77.439522,61.859650 75.255783,59.884937 73.019875,57.688522 
	C72.967712,57.466816 72.872887,57.021275 72.872887,57.021275 
z"/>
<path fill="#DAE1E1" opacity="1.000000" stroke="none" 
	d="
M64.812881,65.808548 
	C67.813530,67.247879 70.559258,68.740883 73.336258,70.173256 
	C75.384644,71.229797 77.486687,72.595894 75.572586,74.954445 
	C74.893753,75.790894 72.331116,75.214653 70.647484,75.066826 
	C69.891838,75.000465 69.182907,74.401909 67.437027,73.548126 
	C66.516983,74.804359 65.646690,76.511917 64.311104,77.693558 
	C62.348881,79.429581 62.241482,80.866455 63.516563,83.150719 
	C64.124611,84.240028 63.296566,86.130951 63.119019,87.658775 
	C61.603287,86.909164 59.597034,86.534439 58.676502,85.329948 
	C56.896870,83.001366 55.729362,80.204964 54.103096,77.316521 
	C53.919617,76.856834 53.941170,76.683098 54.256020,76.076904 
	C57.727993,72.378586 60.906673,69.112724 64.085358,65.846863 
	C64.085358,65.846863 64.571388,65.836197 64.812881,65.808548 
z"/>
<path fill="#D9E1E1" opacity="1.000000" stroke="none" 
	d="
M92.711929,39.084511 
	C91.553268,41.148312 90.195358,43.143040 88.515289,45.611004 
	C90.188393,46.965809 91.945549,48.388683 94.733894,50.646572 
	C96.486504,48.505253 98.326042,45.935066 100.535522,43.736691 
	C101.288811,42.987186 102.972267,43.172550 104.230728,42.930756 
	C104.135597,44.355309 104.587616,46.241241 103.846031,47.120663 
	C101.295593,50.145184 98.507637,53.045399 95.413170,55.490547 
	C94.438614,56.260620 91.757187,56.064251 90.655426,55.241276 
	C88.032845,53.282291 85.886909,50.685200 83.258881,48.179214 
	C82.969337,48.012531 82.911148,47.560413 83.166603,47.151123 
	C86.317238,44.127182 89.212418,41.512539 92.107597,38.897896 
	C92.107597,38.897896 92.512672,39.015434 92.711929,39.084511 
z"/>
<path fill="#FEE9EA" opacity="1.000000" stroke="none" 
	d="
M63.864437,65.590515 
	C60.906673,69.112724 57.727993,72.378586 54.276695,75.815109 
	C52.084965,72.540459 49.908836,69.204521 48.373196,65.596008 
	C47.758682,64.152008 47.920044,61.417988 48.886066,60.528214 
	C49.873623,59.618607 52.500965,59.704067 54.020767,60.318264 
	C57.358864,61.667286 60.450981,63.624973 63.864437,65.590515 
z"/>
<path fill="#FDEBEC" opacity="1.000000" stroke="none" 
	d="
M42.047997,89.258331 
	C41.256676,89.543427 40.465351,89.828522 39.364632,90.216797 
	C33.451683,89.603966 30.298229,86.961205 30.123116,82.834396 
	C29.961243,79.019547 34.640156,72.807304 38.503334,72.106071 
	C39.526405,71.920357 40.744949,72.811508 41.873737,73.208199 
	C41.379612,74.244164 40.918633,75.298317 40.367218,76.302834 
	C40.235317,76.543121 39.696751,76.541939 39.524166,76.780998 
	C38.094055,78.761971 35.125004,81.366577 35.610683,82.660805 
	C36.909222,86.121140 39.981773,83.857391 42.397163,83.179031 
	C43.981979,82.733940 45.579834,82.335266 47.400692,82.235626 
	C45.769024,84.789749 43.908508,87.024040 42.047997,89.258331 
z"/>
<path fill="#D8E8E8" opacity="1.000000" stroke="none" 
	d="
M42.454113,89.201851 
	C43.908508,87.024040 45.769024,84.789749 47.803741,82.275650 
	C48.437424,81.925514 48.896900,81.855194 49.705658,81.749268 
	C55.764648,84.006355 58.020016,87.276619 57.142994,91.991272 
	C56.331875,96.351662 51.458275,101.004555 47.187916,100.942696 
	C45.796852,100.922539 44.426624,99.464371 43.046867,98.663910 
	C44.125984,97.768562 45.138332,96.770058 46.307281,96.013527 
	C47.109585,95.494278 48.503521,95.581398 48.977974,94.924431 
	C50.132286,93.326042 50.904953,91.452034 51.831345,89.689041 
	C50.096966,89.127289 48.391865,88.287376 46.618004,88.100616 
	C45.415405,87.973999 44.116219,88.764839 42.454113,89.201851 
z"/>
<path fill="#FDEFF0" opacity="1.000000" stroke="none" 
	d="
M91.932175,38.572952 
	C89.212418,41.512539 86.317238,44.127182 83.131195,46.925968 
	C79.557594,43.882507 76.274857,40.654907 72.535263,36.978134 
	C76.357925,33.097652 79.862793,29.413752 83.550697,25.923241 
	C84.147888,25.358015 85.557755,25.651432 86.591972,25.547953 
	C86.631737,26.706549 87.181816,28.365007 86.622116,28.936422 
	C84.312096,31.294765 81.665627,33.323559 78.397667,36.108467 
	C81.232407,38.381187 83.112839,39.888798 84.687172,41.151001 
	C87.024895,40.191059 89.390823,39.219532 91.932175,38.572952 
z"/>
<path fill="#D9E4E4" opacity="1.000000" stroke="none" 
	d="
M73.072037,57.910225 
	C75.255783,59.884937 77.439522,61.859650 79.623268,63.834362 
	C79.996346,64.185356 80.369423,64.536346 80.742493,64.887344 
	C82.451332,62.675995 84.021950,60.331524 85.949196,58.330528 
	C86.565659,57.690472 88.126480,57.959965 89.255219,57.813309 
	C89.313828,59.110413 89.951576,60.926067 89.333046,61.616879 
	C86.291649,65.013680 82.916664,68.111816 78.658569,72.299843 
	C75.416161,68.606483 72.602554,65.401566 69.498436,62.042717 
	C69.207932,61.888794 69.120110,61.447819 69.354385,61.045395 
	C70.749794,59.732056 71.910912,58.821140 73.072037,57.910225 
z"/>
<path fill="#FDE6E7" opacity="1.000000" stroke="none" 
	d="
M73.019875,57.688522 
	C71.910912,58.821140 70.749794,59.732056 69.328255,60.822105 
	C66.449417,58.466049 63.639828,56.090797 61.313988,53.310822 
	C60.475182,52.308243 60.797924,50.333862 60.590607,48.802956 
	C62.117828,49.132309 64.001297,49.011353 65.100868,49.881256 
	C67.686790,51.927052 69.898354,54.446045 72.567139,56.897415 
	C72.872887,57.021275 72.967712,57.466816 73.019875,57.688522 
z"/>
</svg>