<svg version="1.1" id="Layer_1" xmlns="http://www.w3.org/2000/svg" xmlns:xlink="http://www.w3.org/1999/xlink" x="0px" y="0px"
	 width="100%" viewBox="0 0 123 70" enable-background="new 0 0 123 70" xml:space="preserve">
<path fill="#FEDE66" opacity="1.000000" stroke="none" 
	d="
M112.900154,32.043941 
	C114.278976,38.866936 109.997696,43.366367 106.387199,48.210476 
	C101.552277,54.697346 97.738777,62.161621 89.805450,65.621780 
	C87.925819,66.441597 85.742386,66.933533 83.695511,66.943878 
	C64.385811,67.041443 45.058586,66.525108 25.772444,67.206108 
	C16.339642,67.539185 4.987116,59.777447 4.233717,48.628418 
	C3.547273,38.470215 4.444536,28.175406 5.081504,17.968124 
	C5.482630,11.540173 16.351742,2.562970 23.857651,2.799845 
	C42.816021,3.398140 61.808697,3.183951 80.781654,2.898355 
	C87.538200,2.796650 92.876572,4.939185 97.656876,10.310613 
	C99.237434,12.253595 100.463905,13.714748 101.877075,15.468565 
	C104.451752,19.150087 106.839737,22.538946 109.171432,26.283617 
	C102.768295,33.931637 98.238503,34.810848 93.817947,29.208929 
	C90.781891,25.361509 88.911316,26.789734 86.597733,30.128212 
	C84.430450,33.878422 83.926811,37.802551 87.127953,40.463470 
	C90.058601,42.899540 93.878227,43.112907 97.430481,39.982880 
	C102.813271,37.268414 107.856712,34.656178 112.900154,32.043941 
M58.082882,45.505245 
	C60.871590,47.002357 62.005371,45.289917 62.864498,43.041119 
	C63.919094,40.280666 64.975540,37.520920 66.446350,33.675415 
	C67.977486,37.803154 68.957481,40.927303 70.328720,43.869076 
	C70.782494,44.842567 72.191017,45.785782 73.263077,45.915447 
	C74.020775,46.007092 75.476929,44.852455 75.712418,44.002399 
	C77.305649,38.251461 78.783417,32.458839 79.956306,26.611059 
	C80.143105,25.679697 78.608681,24.403107 77.870003,23.286123 
	C76.936852,24.063812 75.569740,24.661205 75.156845,25.655041 
	C74.159431,28.055777 73.607597,30.641640 72.564827,34.221546 
	C71.158722,30.593000 70.270256,27.943705 69.087029,25.433344 
	C68.651764,24.509876 67.443474,23.245543 66.724358,23.327982 
	C65.671501,23.448683 64.350784,24.436802 63.836285,25.418110 
	C62.554657,27.862547 61.663807,30.511869 60.225010,34.037106 
	C59.268078,30.771950 58.855518,28.299120 57.789539,26.150461 
	C57.206066,24.974365 55.518429,24.346060 54.328705,23.470734 
	C53.818577,24.863270 52.635365,26.409784 52.912716,27.622168 
	C54.242378,33.434483 55.967228,39.156391 58.082882,45.505245 
M33.948109,23.926338 
	C30.247995,21.995348 29.593433,24.570122 29.284950,27.238363 
	C29.061077,29.174780 29.241232,31.157906 29.241232,33.120205 
	C25.942188,30.318136 24.022539,27.405178 21.860918,24.684467 
	C21.248985,23.914263 19.627441,23.082230 19.006306,23.384140 
	C18.054998,23.846529 17.017523,25.247215 16.978992,26.285362 
	C16.775532,31.767487 16.748838,37.265862 16.971096,42.746017 
	C17.016148,43.856873 18.395899,44.913593 19.160334,45.995274 
	C20.100498,44.876675 21.592442,43.874077 21.857443,42.613537 
	C22.306471,40.477638 21.980829,38.178883 21.980829,35.948589 
	C25.006702,38.507675 26.894838,41.388378 29.102354,43.999023 
	C29.932966,44.981312 31.672136,46.026447 32.688713,45.778503 
	C33.639210,45.546677 34.787582,43.647469 34.801105,42.470078 
	C34.869587,36.507679 34.596546,30.541365 33.948109,23.926338 
M44.846657,28.240505 
	C45.676632,28.205545 46.653587,28.437567 47.305290,28.078787 
	C48.573715,27.380491 49.659817,26.351013 50.821434,25.458708 
	C49.574093,24.638889 48.420933,23.424217 47.055721,23.098604 
	C45.325638,22.685965 43.419952,23.065105 41.595871,22.978760 
	C38.432098,22.828999 37.013229,24.283644 37.072681,27.432663 
	C37.141685,31.087496 37.077541,34.744762 37.078838,38.400974 
	C37.081654,46.343967 37.978359,47.318695 45.999878,46.634487 
	C47.737522,46.486271 49.346863,44.833839 51.015301,43.874249 
	C49.386440,42.925804 47.763279,41.967381 46.126633,41.032570 
	C45.105408,40.449272 44.063824,39.901615 43.031376,39.337963 
	C43.935848,38.630344 44.783470,37.829021 45.758419,37.237576 
	C47.140518,36.399132 48.616455,35.715363 50.052288,34.965492 
	C48.636875,33.975895 47.337776,32.458492 45.779938,32.115177 
	C43.166656,31.539263 41.873344,30.979984 44.846657,28.240505 
z"/>
<path fill="#52524F" opacity="1.000000" stroke="none" 
	d="
M86.951027,29.970352 
	C88.911316,26.789734 90.781891,25.361509 93.817947,29.208929 
	C98.238503,34.810848 102.768295,33.931637 109.453888,26.115549 
	C111.267044,23.218781 113.130333,20.990860 114.086845,18.424915 
	C114.790787,16.536541 114.308868,14.206116 114.355377,12.072672 
	C112.204460,12.060186 109.949005,11.635153 107.930862,12.146567 
	C105.735771,12.702817 103.761131,14.129006 101.690376,15.175903 
	C100.463905,13.714748 99.237434,12.253595 97.966637,10.458142 
	C102.546555,7.281807 107.087074,4.519410 112.960670,4.932859 
	C119.113304,5.365951 123.727318,10.366347 121.606766,16.185019 
	C119.642662,21.574402 116.088425,26.384275 113.067284,31.746643 
	C107.856712,34.656178 102.813271,37.268414 97.042984,39.944534 
	C89.200546,38.242249 87.474602,36.392284 86.951027,29.970352 
z"/>
<path fill="#F2645C" opacity="1.000000" stroke="none" 
	d="
M57.817284,45.207832 
	C55.967228,39.156391 54.242378,33.434483 52.912716,27.622168 
	C52.635365,26.409784 53.818577,24.863270 54.328705,23.470734 
	C55.518429,24.346060 57.206066,24.974365 57.789539,26.150461 
	C58.855518,28.299120 59.268078,30.771950 60.225010,34.037106 
	C61.663807,30.511869 62.554657,27.862547 63.836285,25.418110 
	C64.350784,24.436802 65.671501,23.448683 66.724358,23.327982 
	C67.443474,23.245543 68.651764,24.509876 69.087029,25.433344 
	C70.270256,27.943705 71.158722,30.593000 72.564827,34.221546 
	C73.607597,30.641640 74.159431,28.055777 75.156845,25.655041 
	C75.569740,24.661205 76.936852,24.063812 77.870003,23.286121 
	C78.608681,24.403107 80.143105,25.679697 79.956306,26.611059 
	C78.783417,32.458839 77.305649,38.251461 75.712418,44.002399 
	C75.476929,44.852455 74.020775,46.007092 73.263077,45.915447 
	C72.191017,45.785782 70.782494,44.842567 70.328720,43.869076 
	C68.957481,40.927303 67.977486,37.803154 66.446350,33.675415 
	C64.975540,37.520920 63.919094,40.280666 62.864498,43.041119 
	C62.005371,45.289917 60.871590,47.002357 57.817284,45.207832 
z"/>
<path fill="#F3655C" opacity="1.000000" stroke="none" 
	d="
M34.195663,24.251381 
	C34.596546,30.541365 34.869587,36.507679 34.801105,42.470078 
	C34.787582,43.647469 33.639210,45.546677 32.688713,45.778503 
	C31.672136,46.026447 29.932966,44.981312 29.102354,43.999023 
	C26.894838,41.388378 25.006702,38.507675 21.980829,35.948589 
	C21.980829,38.178883 22.306471,40.477638 21.857443,42.613537 
	C21.592442,43.874077 20.100498,44.876675 19.160334,45.995274 
	C18.395899,44.913593 17.016148,43.856873 16.971096,42.746017 
	C16.748838,37.265862 16.775532,31.767487 16.978992,26.285362 
	C17.017523,25.247215 18.054998,23.846529 19.006306,23.384140 
	C19.627441,23.082230 21.248985,23.914263 21.860918,24.684467 
	C24.022539,27.405178 25.942188,30.318136 29.241232,33.120205 
	C29.241232,31.157906 29.061077,29.174780 29.284950,27.238363 
	C29.593433,24.570122 30.247995,21.995348 34.195663,24.251381 
z"/>
<path fill="#F3655C" opacity="1.000000" stroke="none" 
	d="
M44.448532,28.335926 
	C41.873344,30.979984 43.166656,31.539263 45.779938,32.115177 
	C47.337776,32.458492 48.636875,33.975895 50.052288,34.965492 
	C48.616455,35.715363 47.140518,36.399132 45.758419,37.237576 
	C44.783470,37.829021 43.935848,38.630344 43.031376,39.337963 
	C44.063824,39.901615 45.105408,40.449272 46.126633,41.032570 
	C47.763279,41.967381 49.386440,42.925804 51.015301,43.874249 
	C49.346863,44.833839 47.737522,46.486271 45.999878,46.634487 
	C37.978359,47.318695 37.081654,46.343967 37.078838,38.400974 
	C37.077541,34.744762 37.141685,31.087496 37.072681,27.432663 
	C37.013229,24.283644 38.432098,22.828999 41.595871,22.978760 
	C43.419952,23.065105 45.325638,22.685965 47.055721,23.098604 
	C48.420933,23.424217 49.574093,24.638889 50.821434,25.458706 
	C49.659817,26.351013 48.573715,27.380491 47.305290,28.078787 
	C46.653587,28.437567 45.676632,28.205545 44.448532,28.335926 
z"/>
</svg>